<?xml version="1.0" encoding="UTF-8" standalone="no"?>
<svg
   xmlns:dc="http://purl.org/dc/elements/1.1/"
   xmlns:cc="http://creativecommons.org/ns#"
   xmlns:rdf="http://www.w3.org/1999/02/22-rdf-syntax-ns#"
   xmlns:svg="http://www.w3.org/2000/svg"
   xmlns="http://www.w3.org/2000/svg"
   xmlns:xlink="http://www.w3.org/1999/xlink"
   xmlns:sodipodi="http://sodipodi.sourceforge.net/DTD/sodipodi-0.dtd"
   xmlns:inkscape="http://www.inkscape.org/namespaces/inkscape"
   id="svg2"
   version="1.1"
   viewBox="0 0 96 115.89913"
   preserveAspectRatio="xMidYMid meet"
   xml:space="preserve"
   width="96"
   height="115.89913"
   inkscape:version="0.91 r13725"
   sodipodi:docname="cbf.svg"
   inkscape:export-filename="/var/www/citybibleforum/sites/all/libraries/gmap_markers/cbf.png"
   inkscape:export-xdpi="39.603401"
   inkscape:export-ydpi="39.603401"><sodipodi:namedview
     pagecolor="#ffffff"
     bordercolor="#666666"
     borderopacity="1"
     objecttolerance="10"
     gridtolerance="10"
     guidetolerance="10"
     inkscape:pageopacity="0"
     inkscape:pageshadow="2"
     inkscape:window-width="1321"
     inkscape:window-height="744"
     id="namedview4332"
     showgrid="false"
     fit-margin-top="0"
     fit-margin-left="0"
     fit-margin-right="0"
     fit-margin-bottom="0"
     inkscape:zoom="5.4399999"
     inkscape:cx="36.708093"
     inkscape:cy="62.805271"
     inkscape:window-x="45"
     inkscape:window-y="24"
     inkscape:window-maximized="1"
     inkscape:current-layer="svg2" /><metadata
     id="metadata8"><rdf:RDF><cc:Work
         rdf:about=""><dc:format>image/svg+xml</dc:format><dc:type
           rdf:resource="http://purl.org/dc/dcmitype/StillImage" /><dc:title></dc:title></cc:Work></rdf:RDF></metadata><defs
     id="defs6"><linearGradient
       id="linearGradient3812"><stop
         style="stop-color:#499ddc;stop-opacity:1;"
         offset="0"
         id="stop3814" /><stop
         style="stop-color:#1c3e64;stop-opacity:1;"
         offset="1"
         id="stop3816" /></linearGradient><linearGradient
       id="linearGradient3804"><stop
         style="stop-color:#1c3e64;stop-opacity:1;"
         offset="0"
         id="stop3806" /><stop
         style="stop-color:#499ddc;stop-opacity:1;"
         offset="1"
         id="stop3808" /></linearGradient><clipPath
       clipPathUnits="userSpaceOnUse"
       id="clipPath18"><path
         d="M 1739.78,908.18 C 1610.7,838.789 1432.71,795.891 1236.16,795.891 c -394.203,0 -713.762,172.504 -713.762,385.309 l 0,-317.669 c 0,-212.801 319.559,-385.301 713.762,-385.301 196.55,0 374.54,42.899 503.62,112.29 l 0,317.66 z"
         id="path20"
         inkscape:connector-curvature="0" /></clipPath><linearGradient
       x1="0"
       y1="0"
       x2="1"
       y2="0"
       gradientUnits="userSpaceOnUse"
       gradientTransform="matrix(121.738,0,0,-121.738,52.2399,47.823)"
       spreadMethod="pad"
       id="linearGradient22"><stop
         style="stop-opacity:1;stop-color:#1b3e6e"
         offset="0"
         id="stop24" /><stop
         style="stop-opacity:1;stop-color:#499ddc"
         offset="1"
         id="stop26" /></linearGradient><clipPath
       clipPathUnits="userSpaceOnUse"
       id="clipPath34"><path
         d="m 1438.19,971.805 c -53.44,27.754 -122.66,44.585 -198.46,44.585 -117.63,0 -219.7,-40.367 -270.937,-99.538 -11.23,16.378 -17.367,34.07 -17.367,52.531 0,84.187 127.474,152.437 284.734,152.437 78.44,0 150.21,-17.46 201.69,-44.94 l 100.68,54.78 c -77.35,41.97 -184.41,68.3 -302.37,68.3 -202.74,0 -372.406,-76.67 -416.484,-179.56 -7.285,17.02 -11.258,34.73 -11.258,52.96 0,128.38 191.09,232.45 426.812,232.45 118.23,0 225.17,-26.2 302.44,-68.5 l 101.72,55.03 c -114.87,59.38 -249.92,89.87 -403.6,89.87 -336.985,0 -527.97,-143.85 -561.185,-251.19 -0.234,-0.75 -0.195,-0.57 -0.421,-1.34 -5.215,16.76 -7.973,33.96 -7.973,51.52 0,170 254.73,306.86 568.959,306.86 158.12,0 301.16,-33.95 404.27,-90.29 l 100.8,54.94 -302.05,-480.905 z"
         id="path36"
         inkscape:connector-curvature="0" /></clipPath><linearGradient
       x1="0"
       y1="0"
       x2="1"
       y2="0"
       gradientUnits="userSpaceOnUse"
       gradientTransform="matrix(-106.732,0,0,106.732,174.109,121.925)"
       spreadMethod="pad"
       id="linearGradient38"><stop
         style="stop-opacity:1;stop-color:#1b3e6e"
         offset="0"
         id="stop40" /><stop
         style="stop-opacity:1;stop-color:#499ddc"
         offset="1"
         id="stop42" /></linearGradient><linearGradient
       xlink:href="#linearGradient3804"
       id="linearGradient3810"
       x1="522.39801"
       y1="829.71503"
       x2="1739.78"
       y2="829.71503"
       gradientUnits="userSpaceOnUse" /><linearGradient
       xlink:href="#linearGradient3812"
       id="linearGradient3818"
       x1="666.211"
       y1="1202.4561"
       x2="1740.24"
       y2="1202.4561"
       gradientUnits="userSpaceOnUse" /><linearGradient
       xlink:href="#linearGradient3804"
       id="linearGradient4437"
       gradientUnits="userSpaceOnUse"
       x1="522.39801"
       y1="829.71503"
       x2="1739.78"
       y2="829.71503" /><linearGradient
       xlink:href="#linearGradient3804"
       id="linearGradient4439"
       gradientUnits="userSpaceOnUse"
       x1="522.39801"
       y1="829.71503"
       x2="1739.78"
       y2="829.71503" /><linearGradient
       xlink:href="#linearGradient3812"
       id="linearGradient4441"
       gradientUnits="userSpaceOnUse"
       x1="666.211"
       y1="1202.4561"
       x2="1740.24"
       y2="1202.4561" /><linearGradient
       xlink:href="#linearGradient3812"
       id="linearGradient4443"
       gradientUnits="userSpaceOnUse"
       x1="666.211"
       y1="1202.4561"
       x2="1740.24"
       y2="1202.4561" /><filter
       style="color-interpolation-filters:sRGB"
       inkscape:label="Drop Shadow"
       id="filter4262"><feFlood
         flood-opacity="0.498039"
         flood-color="rgb(0,0,0)"
         result="flood"
         id="feFlood4264" /><feComposite
         in="flood"
         in2="SourceGraphic"
         operator="in"
         result="composite1"
         id="feComposite4266" /><feGaussianBlur
         in="composite1"
         stdDeviation="3"
         result="blur"
         id="feGaussianBlur4268" /><feOffset
         dx="3"
         dy="3"
         result="offset"
         id="feOffset4270" /><feComposite
         in="SourceGraphic"
         in2="offset"
         operator="over"
         result="composite2"
         id="feComposite4272" /></filter></defs><g
     id="g4174"
     style="fill:#ffffff;fill-opacity:1;stroke:#808080;stroke-width:0;stroke-miterlimit:4;stroke-dasharray:none;stroke-opacity:1;filter:url(#filter4262)"
     transform="translate(4.2807541,8.2955179)"><circle
       r="40"
       cy="41.362743"
       cx="43.719246"
       id="path4170"
       style="fill:#ffffff;fill-opacity:1;stroke:#808080;stroke-width:0;stroke-miterlimit:4;stroke-dasharray:none;stroke-opacity:1" /><rect
       transform="matrix(0.70710678,-0.70710678,0.70710678,0.70710678,0,0)"
       y="60.172009"
       x="-38.343636"
       height="40"
       width="40"
       id="rect4172"
       style="fill:#ffffff;fill-opacity:1;stroke:#808080;stroke-width:0;stroke-miterlimit:4;stroke-dasharray:none;stroke-opacity:1" /></g><g
     id="g4351"
     transform="matrix(1.1993552,0,0,1.1442519,-4.2654439,0.39830992)"><g
       id="g14"
       transform="matrix(0.04283094,0,0,-0.04283094,-6.7954281,87.014336)"
       style="fill:url(#linearGradient3810);fill-opacity:1"><g
         clip-path="url(#clipPath18)"
         id="g16"
         style="fill:url(#linearGradient4439);fill-opacity:1"><path
           id="path28"
           style="fill:url(#linearGradient4437);fill-opacity:1;fill-rule:nonzero;stroke:none"
           d="M 1739.78,908.18 C 1610.7,838.789 1432.71,795.891 1236.16,795.891 c -394.203,0 -713.762,172.504 -713.762,385.309 l 0,-317.669 c 0,-212.801 319.559,-385.301 713.762,-385.301 196.55,0 374.54,42.899 503.62,112.29 l 0,317.66"
           inkscape:connector-curvature="0" /></g></g><g
       id="g30"
       transform="matrix(0.04283094,0,0,-0.04283094,-6.7954281,87.014336)"
       style="fill:url(#linearGradient3818);fill-opacity:1"><g
         clip-path="url(#clipPath34)"
         id="g32"
         style="fill:url(#linearGradient4443);fill-opacity:1"><path
           id="path44"
           style="fill:url(#linearGradient4441);fill-opacity:1;fill-rule:nonzero;stroke:none"
           d="m 1438.19,971.805 c -53.44,27.754 -122.66,44.585 -198.46,44.585 -117.63,0 -219.7,-40.367 -270.937,-99.538 -11.23,16.378 -17.367,34.07 -17.367,52.531 0,84.187 127.474,152.437 284.734,152.437 78.44,0 150.21,-17.46 201.69,-44.94 l 100.68,54.78 c -77.35,41.97 -184.41,68.3 -302.37,68.3 -202.74,0 -372.406,-76.67 -416.484,-179.56 -7.285,17.02 -11.258,34.73 -11.258,52.96 0,128.38 191.09,232.45 426.812,232.45 118.23,0 225.17,-26.2 302.44,-68.5 l 101.72,55.03 c -114.87,59.38 -249.92,89.87 -403.6,89.87 -336.985,0 -527.97,-143.85 -561.185,-251.19 -0.234,-0.75 -0.195,-0.57 -0.421,-1.34 -5.215,16.76 -7.973,33.96 -7.973,51.52 0,170 254.73,306.86 568.959,306.86 158.12,0 301.16,-33.95 404.27,-90.29 l 100.8,54.94 -302.05,-480.905"
           inkscape:connector-curvature="0" /></g></g></g></svg>